# xmcd
#
# Track frame offsets:
#	150
#	17275
#	32437
#	40465
#	56355
#	71120
#	82337
#	103077
#	114770
#	136095
#	145332
#
# Disc length: 2288 seconds
# Revision: 5
# Processed by: cddbd v1.5.2PL0 Copyright (c) Steve Scherf et al.
# Submitted via: dBpowerAMP V12.0
#
DISCID=8e08ee0b
DTITLE=Tower Of Power - Urban Renewal
DYEAR=1974
DGENRE=R&B
TTITLE0=Only So Much Oil In The Ground
TTITLE1=Come Back, Baby
TTITLE2=It's Not The Crime
TTITLE3=I Won't Leave Unless You Want Me To
TTITLE4=Maybe It'll Rub Off
TTITLE5=(To Say The Least) You're The Most
TTITLE6=Willing To Learn
TTITLE7=Give Me The Proof
TTITLE8=It Can Never Be The Same
TTITLE9=I Believe In Myself
TTITLE10=Walkin' Up Hip Street
EXTD=
EXTT0=
EXTT1=
EXTT2=
EXTT3=
EXTT4=
EXTT5=
EXTT6=
EXTT7=
EXTT8=
EXTT9=
EXTT10=
PLAYORDER=
